<svg width="24" height="25" viewBox="0 0 24 25" fill="none" xmlns="http://www.w3.org/2000/svg">
<path d="M23.953 5.07009C23.0545 5.46569 22.1026 5.72683 21.128 5.84509C22.1541 5.22834 22.9224 4.26113 23.291 3.12209C22.34 3.67709 21.286 4.08109 20.164 4.30609C19.4238 3.51452 18.4429 2.98951 17.3736 2.81259C16.3044 2.63567 15.2067 2.81674 14.2509 3.32768C13.2952 3.83862 12.5349 4.65084 12.0881 5.63821C11.6412 6.62558 11.533 7.73286 11.78 8.78809C7.69 8.59509 4.067 6.63009 1.64 3.66209C1.19879 4.4119 0.968664 5.26711 0.974 6.13709C0.974 7.84709 1.844 9.35009 3.162 10.2331C2.38086 10.2082 1.61697 9.99702 0.934 9.61709V9.67709C0.933557 10.8135 1.32627 11.915 2.04551 12.7948C2.76474 13.6747 3.76621 14.2786 4.88 14.5041C4.1583 14.6975 3.40241 14.7265 2.668 14.5891C2.98412 15.5671 3.59766 16.422 4.42301 17.0346C5.24837 17.6471 6.24435 17.9868 7.272 18.0061C5.53153 19.372 3.38248 20.1134 1.17 20.1111C0.78 20.1111 0.391 20.0881 0 20.0441C2.25571 21.4884 4.87851 22.2551 7.557 22.2531C16.61 22.2531 21.555 14.7571 21.555 8.26809C21.555 8.05809 21.555 7.84809 21.54 7.63809C22.506 6.94295 23.3392 6.07991 24 5.09009L23.953 5.07009Z" fill="#F061A0"/>
</svg>
