<svg width="23" height="23" viewBox="0 0 23 23" fill="none" xmlns="http://www.w3.org/2000/svg">
<g clip-path="url(#clip0_7_128)">
<path d="M21.0603 23H1.94158C0.8625 23 0 22.1375 0 21.0603V1.94158C0 0.8625 0.8625 0 1.94063 0H21.1312C22.1375 0 23 0.8625 23 1.94063V21.0594C23 22.1375 22.1375 23 21.0603 23ZM11.5 3.80937H8.625C5.96562 3.80937 3.80937 5.96562 3.80937 8.625V14.375C3.80937 17.0334 5.96562 19.1897 8.625 19.1897H14.375C17.0334 19.1897 19.1897 17.0334 19.1897 14.375V10.5656C19.1897 9.99062 18.7584 9.55937 18.1834 9.55937H17.25C16.7478 9.55937 16.3147 9.12812 16.3147 8.62404C16.3147 5.96371 14.1584 3.80746 11.5 3.80746V3.80937ZM14.4459 15.3094H8.625C8.12187 15.3094 7.69062 14.8781 7.69062 14.375C7.69062 13.8719 8.12187 13.4397 8.625 13.4397H14.4459C14.95 13.4397 15.3822 13.8709 15.3822 14.375C15.3822 14.8791 14.951 15.3103 14.4478 15.3103L14.4459 15.3094ZM12.0022 7.69062C12.5072 7.69062 12.9375 8.12187 12.9375 8.625C12.9375 9.12813 12.5062 9.55937 12.0031 9.55937H8.55313C8.05 9.55937 7.61779 9.12813 7.61779 8.625C7.61779 8.12187 8.04904 7.69062 8.55217 7.69062H12.0022Z" fill="#F061A0"/>
</g>
<defs>
<clipPath id="clip0_7_128">
<rect width="23" height="23" fill="white"/>
</clipPath>
</defs>
</svg>
